<?xml version="1.0" encoding="UTF-8"?>
<svg id="Layer_1" data-name="Layer 1" xmlns="http://www.w3.org/2000/svg" xmlns:xlink="http://www.w3.org/1999/xlink" viewBox="0 0 647.22 210.05">
  <defs>
    <linearGradient id="linear-gradient" x1="158.19" y1="117.73" x2="619.77" y2="117.73" gradientUnits="userSpaceOnUse">
      <stop offset="0" stop-color="#91288d"/>
      <stop offset="1" stop-color="#1e76bc"/>
    </linearGradient>
  </defs>
  <rect x="502.76" y="101.62" width="19.76" height="28.97" style="fill: #eff9fe;"/>
  <rect x="572.69" y="101.62" width="20.95" height="28.97" style="fill: #eff9fe;"/>
  <g>
    <path d="M581.9,155.43c-14.92,0-27.54-6.55-34.62-17.97-.48-.77-1.23-.85-1.53-.85s-1.1.09-1.57.91c-6.53,11.4-19.08,17.43-36.27,17.43-13.15,0-24.99-.7-28.3-.91-.23-.01-.45-.05-.67-.11-.19.03-.39.05-.59.05h-25.91c-1.57,0-2.92-1.11-3.23-2.65l-1.41-7.06h-8.93l-1.41,7.06c-.31,1.54-1.67,2.65-3.23,2.65h-25.91c-.2,0-.4-.02-.6-.06-.19.04-.39.06-.58.06h-23.16c-1.82,0-3.3-1.48-3.3-3.3v-21.86l-7.03,22.83c-.43,1.39-1.69,2.33-3.15,2.33h-18.85c-1.46,0-2.72-.94-3.15-2.33l-7.02-22.83v21.86c0,1.82-1.48,3.3-3.3,3.3h-48.33c-1.23,0-2.35-.68-2.92-1.77l-8.09-15.5v13.97c0,1.82-1.48,3.3-3.3,3.3h-21.97c-1.22,0-2.29-.67-2.87-1.67-3.41,1.64-8.38,2.51-12.36,2.51-1.85,0-3.52-.18-4.94-.54-8.39-2.09-15.26-6.9-19.77-13.77-4.44,8.99-15.1,14.92-27.73,14.92-14.9,0-25.03-6.56-28.69-9.39-1.27-.98-1.64-2.72-.9-4.16,2.31-4.44,3.39-10.54,4.1-14.57l.04-.25c.28-1.58,1.65-2.73,3.25-2.73.71,0,1.4.23,1.97.66,2.79,2.08,9.69,6.03,15.86,6.03.81,0,1.28-.26,1.49-.46-.85-.61-3.13-1.5-4.86-2.17-7.94-3.08-21.22-8.24-21.22-24.25,0-6.24,3.01-12.38,8.26-16.83,5.53-4.69,13.22-7.27,21.67-7.27,9.57,0,16.63,3.08,20.96,5.75v-1c0-1.82,1.48-3.3,3.3-3.3h23.16c1.82,0,3.3,1.48,3.3,3.3v35.37c0,3.88,2.22,6.49,5.52,6.49s5.52-2.61,5.52-6.49v-35.37c0-1.76,1.39-3.2,3.12-3.29.13-.03.27-.05.44-.06,3.29-.21,14.99-.91,27.33-.91,17.47,0,28.79,6.46,32.22,18v-13.74c0-1.82,1.48-3.3,3.3-3.3h34.11c1.46,0,2.73.94,3.15,2.34l8.79,29.04,8.79-29.04c.42-1.4,1.69-2.34,3.16-2.34h34.11c1.82,0,3.3,1.48,3.3,3.3v46.92l14.01-47.85c.41-1.4,1.71-2.37,3.16-2.37h31.5c1.43,0,2.7.95,3.1,2.32,1.33,4.58,8.96,30.6,14.32,48.9v-48c0-1.73,1.35-3.18,3.08-3.29,3.31-.21,15.15-.91,28.3-.91,17.2,0,29.74,6.03,36.27,17.43.47.82,1.26.91,1.57.91s1.06-.08,1.53-.85c7.08-11.42,19.69-17.97,34.62-17.97,22.87,0,40.12,16.21,40.12,37.69s-17.25,37.69-40.12,37.69ZM310.3,134.7c.1.16.27.37.62.37,0,0,.81,0,.81-.78v-19.3c-1.65,5.84-4.79,9.32-6.87,11.09l5.43,8.63ZM507.91,129.08c6.33,0,9.4-3.71,9.4-11.34s-3.08-11.35-9.4-11.35h-1.63v22.69h1.63ZM581.9,108.33c-4.81,0-8.43,4.04-8.43,9.4s3.62,9.4,8.43,9.4,8.43-4.04,8.43-9.4-3.62-9.4-8.43-9.4ZM444,124.22l-.67-3.44-.67,3.44h1.34ZM189.76,104.9c.84.62,3.13,1.51,4.86,2.18,3.97,1.55,9.02,3.51,13.22,6.98v-8.58l-1.43,2.26c-.61.96-1.65,1.53-2.78,1.53-.73,0-1.44-.25-2.02-.69-1.6-1.24-5.8-4.13-10.36-4.13-.81,0-1.28.26-1.49.46ZM279.52,109.65c2.04,0,3.58-1.33,3.58-3.09s-1.54-3.09-3.58-3.09h-.66v6.18h.66Z" style="fill: #eff9fe;"/>
    <path d="M581.9,82.29c-14.65,0-26.37,6.69-32.7,16.9-1.62,2.61-5.44,2.54-6.97-.12-5.83-10.16-17.28-16.3-34.32-16.3-13.08,0-24.78.69-28.15.91-.55.04-.98.49-.98,1.04v51.27c0,2.06-2.91,2.48-3.49.51-5.37-18.31-13.83-47.21-15.24-52.06-.12-.42-.5-.7-.94-.7h-31.5c-.46,0-.87.31-1,.75l-15.61,53.29c-.47,1.59-2.82,1.26-2.82-.4v-52.59c0-.58-.47-1.05-1.05-1.05h-34.11c-.46,0-.87.3-1,.74l-9.94,32.85c-.3.99-1.7.99-2,0l-9.94-32.85c-.13-.44-.54-.74-1-.74h-34.11c-.58,0-1.05.47-1.05,1.05v49.5c0,3.04-3.97,4.18-5.59,1.61l-6.01-9.55c-.29-.46-.17-1.07.27-1.39,2.16-1.6,7.93-6.95,7.93-18.4,0-14.08-9.71-23.79-31.07-23.79-12.25,0-23.82.69-27.18.91-.09,0-.17.04-.25.07h-.16c-.58,0-1.05.47-1.05,1.05v35.37c0,5.34-3.4,8.74-7.77,8.74s-7.77-3.4-7.77-8.74v-35.37c0-.58-.47-1.05-1.05-1.05h-23.16c-.58,0-1.05.47-1.05,1.05v1.39c0,1.61-1.78,2.56-3.14,1.7-4.36-2.75-11.04-5.59-20.07-5.59-16.99,0-27.68,10.68-27.68,21.85,0,21.36,26.22,21.36,26.22,26.22,0,1.46-1.46,2.91-3.88,2.91-6.54,0-13.84-3.96-17.2-6.47-.63-.47-1.52-.11-1.66.66-.72,4.1-1.84,10.63-4.36,15.47-.24.46-.13,1.02.28,1.33,3,2.31,12.65,8.92,27.32,8.92s25.21-8.44,27.28-18.15c3.89,8.56,11.24,14.7,20.77,17.07,5.69,1.41,15.45-.56,18.02-3.32.19-.21.53-.07.54.21,0,.57.02,1.15.03,1.71s.48,1.03,1.05,1.03h21.97c.58,0,1.05-.47,1.05-1.05v-21.29h.97l11.36,21.77c.18.35.54.56.93.56h48.33c.58,0,1.05-.47,1.05-1.05v-29.87c0-1.2,1.69-1.46,2.05-.31l9.38,30.48c.14.44.54.74,1,.74h18.85c.46,0,.86-.3,1-.74l9.38-30.48c.35-1.15,2.05-.89,2.05.31v29.87c0,.58.47,1.05,1.05,1.05h23.16c.22,0,.41-.08.58-.2.17.12.37.2.6.2h25.91c.5,0,.93-.35,1.03-.84l1.61-8.03c.1-.49.53-.84,1.03-.84h10.91c.5,0,.93.35,1.03.84l1.61,8.03c.1.49.53.84,1.03.84h25.91c.27,0,.52-.1.7-.27.18.19.42.32.7.34,3.38.22,15.08.91,28.15.91,17.04,0,28.5-6.13,34.32-16.3,1.52-2.66,5.35-2.73,6.97-.12,6.33,10.22,18.05,16.9,32.7,16.9,22.33,0,37.87-15.54,37.87-35.44s-15.54-35.44-37.87-35.44ZM187.36,105.11c0-1.46,1.46-2.91,3.88-2.91,5.22,0,9.86,3.14,11.74,4.61.49.38,1.19.25,1.52-.27l2.98-4.71c.75-1.19,2.6-.66,2.6.75v17.14c-7.13-10-22.72-10.86-22.72-14.61ZM279.52,111.9h-1.87c-.58,0-1.05-.47-1.05-1.05v-8.59c0-.58.47-1.05,1.05-1.05h1.87c3.4,0,5.83,2.43,5.83,5.34s-2.43,5.34-5.83,5.34ZM445.46,126.47h-4.26c-.66,0-1.15-.6-1.03-1.25l2.13-10.95c.22-1.13,1.83-1.13,2.05,0l2.13,10.95c.13.65-.37,1.25-1.03,1.25ZM507.91,131.33h-2.84c-.58,0-1.05-.47-1.05-1.05v-25.1c0-.58.47-1.05,1.05-1.05h2.84c7.28,0,11.65,4.37,11.65,13.6s-4.37,13.59-11.65,13.59ZM581.9,129.38c-5.83,0-10.68-4.86-10.68-11.65s4.86-11.65,10.68-11.65,10.68,4.85,10.68,11.65-4.86,11.65-10.68,11.65Z" style="fill: url(#linear-gradient);"/>
    <path d="M581.9,82.29c22.33,0,37.87,15.54,37.87,35.44s-15.54,35.44-37.87,35.44c-14.65,0-26.37-6.69-32.7-16.9-.79-1.28-2.12-1.91-3.44-1.91s-2.75.68-3.52,2.04c-5.83,10.17-17.28,16.3-34.32,16.3-13.08,0-24.78-.69-28.15-.91-.28-.02-.52-.14-.7-.34-.18.17-.43.27-.7.27h-25.91c-.5,0-.93-.35-1.03-.84l-1.61-8.03c-.1-.49-.53-.84-1.03-.84h-10.91c-.5,0-.93.35-1.03.84l-1.61,8.03c-.1.49-.53.84-1.03.84h-25.91c-.23,0-.43-.08-.6-.2-.17.11-.36.2-.58.2h-23.16c-.58,0-1.05-.47-1.05-1.05v-29.87c0-.67-.53-1.05-1.06-1.05-.42,0-.83.23-.99.74l-9.38,30.48c-.14.44-.54.74-1,.74h-18.85c-.46,0-.86-.3-1-.74l-9.38-30.48c-.16-.51-.57-.74-.99-.74-.53,0-1.06.38-1.06,1.05v29.87c0,.58-.47,1.05-1.05,1.05h-48.33c-.39,0-.75-.22-.93-.56l-11.36-21.77h-.97v21.29c0,.58-.47,1.05-1.05,1.05h-21.97c-.57,0-1.04-.46-1.05-1.03,0-.56-.02-1.14-.03-1.71,0-.19-.15-.31-.31-.31-.08,0-.16.03-.22.1-1.98,2.13-8.24,3.79-13.61,3.79-1.59,0-3.1-.15-4.4-.47-9.53-2.37-16.88-8.5-20.77-17.07-2.07,9.72-12.18,18.15-27.28,18.15s-24.31-6.6-27.32-8.92c-.41-.32-.52-.88-.28-1.33,2.52-4.84,3.64-11.37,4.36-15.47.09-.53.55-.87,1.03-.87.21,0,.43.07.63.21,3.36,2.51,10.67,6.47,17.2,6.47,2.43,0,3.88-1.46,3.88-2.91,0-4.86-26.22-4.86-26.22-26.22,0-11.17,10.68-21.85,27.68-21.85,9.02,0,15.71,2.84,20.07,5.59.35.22.73.32,1.11.32,1.06,0,2.04-.83,2.04-2.03v-1.39c0-.58.47-1.05,1.05-1.05h23.16c.58,0,1.05.47,1.05,1.05v35.37c0,5.34,3.4,8.74,7.77,8.74s7.77-3.4,7.77-8.74v-35.37c0-.58.47-1.05,1.05-1.05h.16c.08-.03.16-.06.25-.07,3.36-.22,14.93-.91,27.18-.91,21.36,0,31.07,9.71,31.07,23.79,0,11.44-5.77,16.79-7.93,18.4-.44.33-.56.93-.27,1.39l6.01,9.55c.62.98,1.58,1.42,2.53,1.42,1.54,0,3.06-1.15,3.06-3.03v-49.5c0-.58.47-1.05,1.05-1.05h34.11c.46,0,.87.3,1,.74l9.94,32.85c.15.5.58.74,1,.74s.85-.25,1-.74l9.94-32.85c.13-.44.54-.74,1-.74h34.11c.58,0,1.05.47,1.05,1.05v52.59c0,.92.73,1.44,1.45,1.44.58,0,1.16-.33,1.36-1.03l15.61-53.29c.13-.45.54-.75,1-.75h31.5c.44,0,.82.28.94.7,1.41,4.85,9.88,33.75,15.24,52.06.26.87.97,1.28,1.68,1.28.9,0,1.8-.64,1.8-1.79v-51.27c0-.55.43-1.01.98-1.04,3.38-.22,15.08-.91,28.15-.91,17.04,0,28.5,6.13,34.32,16.3.78,1.35,2.15,2.04,3.52,2.04s2.65-.63,3.44-1.91c6.33-10.22,18.05-16.9,32.7-16.9M203.62,107.02c-.22,0-.45-.07-.64-.22-1.88-1.46-6.52-4.61-11.74-4.61-2.43,0-3.88,1.46-3.88,2.91,0,3.75,15.59,4.61,22.72,14.61v-17.14c0-.87-.71-1.41-1.42-1.41-.44,0-.89.2-1.17.66l-2.98,4.71c-.2.32-.54.49-.88.49M277.65,111.9h1.87c3.4,0,5.83-2.43,5.83-5.34s-2.43-5.34-5.83-5.34h-1.87c-.58,0-1.05.47-1.05,1.05v8.59c0,.58.47,1.05,1.05,1.05M505.07,131.33h2.84c7.28,0,11.65-4.37,11.65-13.59s-4.37-13.6-11.65-13.6h-2.84c-.58,0-1.05.47-1.05,1.05v25.1c0,.58.47,1.05,1.05,1.05M581.9,129.38c5.83,0,10.68-4.86,10.68-11.65s-4.86-11.65-10.68-11.65-10.68,4.85-10.68,11.65,4.86,11.65,10.68,11.65M441.2,126.47h4.26c.66,0,1.15-.6,1.03-1.25l-2.13-10.95c-.11-.56-.57-.85-1.03-.85s-.92.28-1.03.85l-2.13,10.95c-.13.65.37,1.25,1.03,1.25M581.9,77.79c-15.45,0-28.57,6.7-36.14,18.42-5.01-8.33-15.62-17.93-37.86-17.93-13.22,0-25.11.7-28.44.92-2.91.19-5.19,2.62-5.19,5.53v32.32c-4.38-14.95-8.92-30.44-9.91-33.85-.68-2.32-2.84-3.94-5.26-3.94h-31.5c-2.45,0-4.63,1.64-5.32,3.99l-9.6,32.79v-31.23c0-3.06-2.49-5.55-5.55-5.55h-34.11c-2.46,0-4.6,1.58-5.31,3.94l-6.64,21.93-6.64-21.93c-.71-2.36-2.85-3.94-5.31-3.94h-34.11c-3.06,0-5.55,2.49-5.55,5.55v4.71c-1.05-1.3-2.24-2.5-3.57-3.59-6.17-5.07-15.05-7.64-26.4-7.64-12.41,0-24.17.7-27.48.92-.22.01-.42.04-.6.08-2.83.24-5.07,2.63-5.07,5.53v35.37c0,2.05-.86,4.24-3.27,4.24s-3.27-2.19-3.27-4.24v-35.37c0-3.06-2.49-5.55-5.55-5.55h-23.16c-1.48,0-2.87.58-3.92,1.62-.42.42-.77.9-1.03,1.41-4.6-2.33-11.08-4.5-19.3-4.5-8.98,0-17.19,2.77-23.12,7.81-5.75,4.88-9.05,11.64-9.05,18.54,0,8.4,3.38,14.1,7.78,18.09-2.14.48-3.84,2.21-4.23,4.45l-.04.24c-.69,3.9-1.73,9.8-3.88,13.93-1.25,2.4-.61,5.33,1.52,6.98,3.84,2.96,14.47,9.85,30.06,9.85,12.03,0,22.4-5.09,27.93-13.09,4.74,5.83,11.28,9.94,19.03,11.87,1.61.4,3.45.6,5.49.6,3.16,0,7.87-.59,11.76-2.07.95.77,2.16,1.23,3.47,1.23h21.97c3.06,0,5.55-2.49,5.55-5.55v-4.8l3.84,7.36c.96,1.84,2.84,2.98,4.92,2.98h48.33c3.06,0,5.55-2.49,5.55-5.55v-6.9l2.62,8.53c.72,2.34,2.85,3.91,5.3,3.91h18.85c2.45,0,4.58-1.57,5.3-3.92l2.62-8.53v6.9c0,3.06,2.49,5.55,5.55,5.55h23.16c.2,0,.39-.01.58-.03.2.02.4.03.6.03h25.91c2.63,0,4.92-1.88,5.44-4.46l1.05-5.25h5.25l1.05,5.25c.52,2.58,2.8,4.46,5.44,4.46h25.91c.16,0,.32,0,.48-.02.21.04.42.06.63.08,3.33.21,15.22.92,28.45.92,22.24,0,32.84-9.6,37.86-17.93,7.56,11.71,20.69,18.42,36.14,18.42,11.85,0,22.65-4.08,30.42-11.5,7.71-7.36,11.95-17.46,11.95-28.44s-4.25-21.08-11.95-28.44c-7.77-7.42-18.57-11.5-30.42-11.5h0ZM508.52,126.81v-18.17c3.33.14,6.54,1.53,6.54,9.08s-3.21,8.95-6.54,9.08h0ZM581.9,124.88c-3.52,0-6.18-3.08-6.18-7.15s2.66-7.15,6.18-7.15,6.18,3.08,6.18,7.15-2.66,7.15-6.18,7.15h0ZM307.76,126.44c.56-.57,1.14-1.23,1.72-1.98v4.72l-1.72-2.74h0Z" style="fill: #eff9fe;"/>
  </g>
  <g>
    <path d="M53.53,207.8c-2.27,0-4.24-1.28-5.13-3.34-.95-2.18-.45-4.71,1.28-6.43,3.25-3.25,5.35-6.59,6.49-10.37C24.3,178.67,2.25,149.7,2.25,116.42c0-8.32,1.37-16.48,4.06-24.25,0-.02.01-.04.02-.05.3-.9.59-1.71.89-2.48,7.67-19.76,23.53-35.29,43.52-42.61,9.67-3.92,15.97-13.29,15.97-23.84,0-3.73-.78-7.32-2.31-10.68-.93-2.03-.85-4.31.22-6.27,1.06-1.94,2.92-3.24,5.11-3.56,1.88-.28,3.75-.42,5.54-.42,11.49,0,18.93,5.62,23.14,10.33,5.69,6.37,8.43,14.29,8.82,20.11,9.1,1.01,23.28,6.81,27.72,23.58.71,2.67-.17,5.43-2.28,7.21-1.29,1.08-2.92,1.68-4.58,1.68-1.03,0-2.04-.22-2.99-.66-7.66-3.51-15.85-5.29-24.35-5.29-27.3,0-51.33,19.35-57.13,46.01-.1.52-.16,1.15-.16,1.77,0,6.16,5.01,9.85,9.85,9.85,4.05,0,9.74-3.06,9.74-9.85,0-29.6,21.39-45.08,42.51-45.08,9.02,0,17.91,2.99,25.23,8.45l50.56-47.84c1.41-1.32,3.23-2.04,5.13-2.04,3,0,5.72,1.78,6.93,4.53,1.21,2.75.7,5.85-1.35,8.09,0,0-48.79,51.93-48.79,51.93.82,1.57,1.54,3.18,2.15,4.81.58,1.54,1.11,3.12,1.58,4.68.28.92.54,1.84.79,2.77,0,.01.01.04.01.04,1.65,6.27,2.49,12.69,2.49,19.08,0,18.8-7.66,37.55-21.02,51.43-8.45,8.78-18.9,15.35-30.28,19.04-7.97,12.45-24.81,20.25-45.28,20.92h-.2Z" style="fill: #eff9fe;"/>
    <path d="M75.26,4.5c10.51,0,17.38,5.02,21.46,9.58,5.76,6.44,8.51,15.03,8.29,20.71,9.43.29,23.53,6.1,27.75,22.06.48,1.82-.11,3.7-1.55,4.92-.9.76-2.01,1.15-3.13,1.15-.69,0-1.39-.15-2.05-.45-7.96-3.65-16.46-5.5-25.29-5.5-28.35,0-53.3,20.1-59.33,47.79-.13.7-.21,1.47-.21,2.25,0,7.57,6.15,12.1,12.1,12.1,4.98,0,11.99-3.76,11.99-12.1,0-28.12,20.26-42.83,40.26-42.83,9.4,0,18.32,3.38,25.38,9.16l51.97-49.17c.99-.92,2.26-1.43,3.59-1.43h0c2.1,0,4.02,1.25,4.87,3.19.85,1.92.48,4.09-.95,5.67-.02.02-.03.03-.05.05l-49.84,53.04c1.08,1.89,2.02,3.88,2.8,5.96.56,1.5,1.08,3.03,1.54,4.55.27.9.53,1.81.77,2.73,0,0,0,0,0,0,1.6,6.09,2.41,12.31,2.41,18.51,0,18.23-7.43,36.4-20.39,49.87-8.5,8.83-18.81,15.18-30.13,18.7-7.31,12.1-23.8,19.9-43.88,20.56-.04,0-.08,0-.12,0-1.37,0-2.54-.75-3.07-1.99-.58-1.33-.26-2.88.8-3.95,4.55-4.55,6.7-9.04,7.62-13.57-31.2-7.8-54.38-36.05-54.38-69.63,0-8.07,1.32-15.98,3.93-23.52,0,0,0,0,0-.01.27-.82.56-1.64.87-2.45,7.44-19.16,22.81-34.21,42.19-41.31,10.57-4.28,17.44-14.48,17.44-25.96,0-4.05-.85-7.96-2.51-11.61-.63-1.38-.57-2.93.15-4.26.72-1.32,1.98-2.19,3.46-2.41,1.83-.27,3.57-.39,5.22-.39M186.3,27.08c.07-.02.14-.03.21-.03,0,0,.01,0,.02,0-.01,0-.02,0-.04,0-.06,0-.13.02-.19.04M186.73,27.08s.08.02.11.04c-.04-.01-.07-.03-.11-.04-.04,0-.08-.02-.12-.02.04,0,.08.01.12.02M134.13,76.24l51.71-48.94c.11-.1.22-.16.33-.21-.12.04-.23.11-.33.21l-51.71,48.94M187.14,27.3c-.06-.05-.13-.1-.2-.14.07.04.14.08.2.14M187.21,27.36c.07.07.13.16.18.25-.05-.09-.11-.17-.18-.25,0,0,0,0-.01-.01,0,0,0,0,.01.01M187.48,27.91c-.01-.09-.04-.17-.07-.25.04.08.06.16.07.25M187.49,28.02s0,.07,0,.1c0,.04-.01.08-.02.12.01-.04.02-.08.02-.12,0-.03,0-.07,0-.1,0,0,0,0,0-.01,0,0,0,0,0,.01M187.23,28.68c.1-.11.16-.22.2-.33-.04.11-.11.22-.2.33M75.26,0v4.5S75.26,0,75.26,0c-1.9,0-3.88.15-5.87.44-2.89.42-5.36,2.14-6.76,4.71-1.41,2.58-1.51,5.6-.29,8.28,1.4,3.06,2.11,6.34,2.11,9.74,0,9.61-5.72,18.14-14.57,21.76-20.56,7.55-36.87,23.54-44.76,43.88-.31.8-.61,1.64-.91,2.56,0,.02-.01.04-.02.06h0c-2.77,8.01-4.18,16.42-4.18,24.99,0,17.34,5.69,33.69,16.46,47.28,9.45,11.93,22.38,20.84,36.77,25.42-1.12,2.58-2.8,4.97-5.15,7.32-2.38,2.38-3.07,5.88-1.75,8.92,1.25,2.9,4.01,4.7,7.2,4.7.09,0,.19,0,.28,0,20.83-.68,38.11-8.6,46.64-21.27,11.44-3.85,21.94-10.52,30.45-19.37,13.76-14.3,21.65-33.61,21.65-52.99,0-6.58-.86-13.2-2.56-19.66,0-.02-.01-.04-.02-.06-.25-.95-.52-1.9-.8-2.83-.49-1.61-1.04-3.22-1.63-4.81-.46-1.22-.97-2.44-1.54-3.63l47.65-50.71.09-.1c2.65-2.91,3.32-6.94,1.74-10.52-1.58-3.57-5.11-5.87-8.99-5.87-2.47,0-4.84.94-6.66,2.64l-43.1,40.79c.77-1.84.92-3.92.39-5.95-4.02-15.19-16.25-23.2-27.85-25.02-.83-6-3.73-13.49-9.19-19.6C95.56,6.03,87.58,0,75.26,0h0ZM45.83,105.65c4.78-21.85,22.29-38.58,43.63-43.02-5.44,2.07-10.45,5.17-14.63,9.14-9.18,8.73-14.03,20.91-14.03,35.22,0,6.21-5.55,7.6-7.49,7.6-4.93,0-7.6-3.91-7.6-7.6,0-.46.04-.93.12-1.35h0ZM130.18,67.18c.35-.08.69-.18,1.03-.3l-.61.58c-.14-.09-.27-.19-.41-.28h0Z" style="fill: #eff9fe;"/>
  </g>
  <path d="M76.28,186.19c-38.54,0-69.78-31.24-69.78-69.78,0-8.02,1.35-15.71,3.82-22.86-1.58,4.8-2.43,9.93-2.43,15.26,0,27,21.88,48.88,48.88,48.88,21.93,0,41.85-16.35,46.68-34.34,3.46-12.87,19.88-28.34,40.25-24.93,1.51,5.75,2.35,11.78,2.35,18,0,36.25-29.62,69.78-69.78,69.78Z" style="fill: #eff9fe; stroke: #002a41; stroke-linecap: round; stroke-linejoin: round; stroke-width: 4px;"/>
  <path d="M53.3,121.1c5.92,0,13.99-4.5,13.99-14.1,0-27.34,19.76-40.83,38.26-40.83,16.51,0,30.43,10.54,35.89,25.16.54,1.45,1.04,2.93,1.5,4.43.27.88.52,1.77.75,2.66-20.37-3.41-36.79,12.05-40.25,24.93-4.84,17.99-24.75,34.34-46.68,34.34-27,0-48.88-21.88-48.88-48.88,0-6.22,1.16-12.17,3.28-17.65,7.22-18.59,22.21-33.27,41.01-40.15,11-4.45,18.76-15.24,18.76-27.83,0-4.44-.96-8.65-2.69-12.44-.76-1.66.27-3.6,2.08-3.86,25.24-3.69,34.58,21.64,32.39,29.97,8.05-.64,23.67,3.74,28.11,20.53.62,2.33-1.78,4.29-3.97,3.29-7.95-3.64-16.8-5.68-26.12-5.68-30.06,0-55.14,21.14-61.28,49.36-.17.87-.25,1.76-.25,2.67,0,8.53,6.96,14.1,14.1,14.1Z" style="fill: #1e76bc; stroke: #002a41; stroke-linecap: round; stroke-linejoin: round; stroke-width: 4px;"/>
  <path d="M88.04,130.17c2.52,3.07,21.29,26.14,8.98,51.58-5.99,12.39-22,21.09-43.43,21.8-1.37.04-1.88-1.55-.91-2.52,19.86-19.86-3.07-38.9,17.28-59.25" style="fill: #1e76bc; stroke: #002a41; stroke-linecap: round; stroke-linejoin: round; stroke-width: 4px;"/>
  <path d="M95.06,103.64c-4.85,0-8.79-3.94-8.79-8.79s3.94-8.79,8.79-8.79,8.79,3.94,8.79,8.79-3.94,8.79-8.79,8.79Z" style="fill: #002a41;"/>
  <g>
    <path d="M132.19,87.97c-2.15,0-4.18-1.37-5.03-3.41-.85-2.02-.38-4.21,1.24-5.86l55.97-52.96c.6-.56,1.35-.86,2.13-.86,1.23,0,2.4.77,2.9,1.91.5,1.13.28,2.41-.57,3.34l-52.74,56.12c-1.14,1.14-2.47,1.72-3.9,1.72Z" style="fill: #eff9fe;"/>
    <path d="M186.49,27.04c.74,0,1.4.91.74,1.64l-52.71,56.1c-.73.73-1.55,1.04-2.33,1.04-2.51,0-4.62-3.2-2.26-5.6l55.92-52.91c.2-.19.43-.27.64-.27M186.49,22.73c-1.33,0-2.6.51-3.59,1.43l-55.94,52.93s-.07.07-.11.11c-2.22,2.25-2.87,5.4-1.69,8.2,1.19,2.83,4.01,4.74,7.02,4.74,1.98,0,3.88-.81,5.37-2.29.03-.03.07-.07.1-.1l52.71-56.1s.03-.03.05-.05c1.43-1.58,1.8-3.75.95-5.67-.86-1.94-2.77-3.19-4.87-3.19h0Z" style="fill: #002a41;"/>
  </g>
  <circle cx="94.13" cy="91.27" r="2.43" style="fill: #eff9fe;"/>
  <rect x="613.89" y="84.13" width="15.88" height="11.81" style="fill: #eff9fe;"/>
  <g>
    <text transform="translate(615.95 94.88)" style="fill: none; font-family: PeaceSans, &apos;Peace Sans&apos;; font-size: 16.25px; stroke: #eff9fe; stroke-linejoin: round; stroke-width: 5px;"><tspan x="0" y="0">TM</tspan></text>
    <text transform="translate(615.95 94.88)" style="fill: #1e76bc; font-family: PeaceSans, &apos;Peace Sans&apos;; font-size: 16.25px;"><tspan x="0" y="0">TM</tspan></text>
    <text transform="translate(615.95 94.88)" style="fill: #1e76bc; font-family: PeaceSans, &apos;Peace Sans&apos;; font-size: 16.25px;"><tspan x="0" y="0">TM</tspan></text>
  </g>
</svg>